<?xml version="1.0" encoding="UTF-8"?>
<svg xmlns="http://www.w3.org/2000/svg" xmlns:xlink="http://www.w3.org/1999/xlink" width="256px" height="256px" viewBox="0 0 256 256" version="1.1">
<g id="surface1">
<path style=" stroke:none;fill-rule:nonzero;fill:rgb(0%,0%,0%);fill-opacity:1;" d="M 120.0625 77.824219 C 112.027344 79.105469 102.859375 83.148438 96.410156 88.320312 C 88.0625 95.027344 82.277344 103.679688 79 114.433594 C 77.722656 118.734375 77.621094 119.65625 77.621094 128 C 77.671875 136.242188 77.773438 137.320312 79.054688 141.566406 C 85.8125 163.992188 105.164062 178.6875 128 178.6875 C 153.242188 178.6875 174.539062 160.203125 178.226562 135.117188 C 179.507812 126.257812 178.023438 115.609375 174.386719 107.316406 C 168.292969 93.59375 155.339844 82.6875 140.390625 78.796875 C 135.832031 77.621094 124.929688 77.105469 120.0625 77.824219 Z M 135.832031 81.152344 C 150.375 83.710938 162.097656 91.957031 169.675781 105.011719 C 171.570312 108.339844 173.824219 114.6875 174.847656 119.808594 C 176.539062 128.101562 175.207031 139.109375 171.519531 147.25 C 164.863281 161.996094 151.808594 171.980469 135.425781 174.898438 C 120.832031 177.460938 105.523438 172.542969 94.515625 161.691406 C 75.777344 143.207031 75.726562 113.152344 94.363281 94.515625 C 105.472656 83.40625 120.679688 78.539062 135.832031 81.152344 Z M 135.832031 81.152344 "/>
<path style=" stroke:none;fill-rule:nonzero;fill:rgb(0%,0%,0%);fill-opacity:1;" d="M 123.136719 83.507812 C 115.609375 84.378906 109.773438 86.476562 103.527344 90.574219 C 99.429688 93.285156 91.648438 100.710938 91.648438 101.886719 C 91.648438 102.195312 92.875 102.398438 94.363281 102.453125 C 95.796875 102.503906 98.304688 102.65625 99.839844 102.910156 L 102.65625 103.269531 L 100.351562 103.371094 C 96.769531 103.476562 94.054688 104.039062 94.769531 104.5 C 95.128906 104.703125 98.152344 105.0625 101.476562 105.265625 C 104.804688 105.421875 107.367188 105.777344 107.210938 106.035156 C 107.058594 106.292969 103.886719 106.496094 100.199219 106.496094 C 96.460938 106.496094 92.261719 106.648438 90.777344 106.804688 L 88.113281 107.160156 L 86.527344 111 C 85.195312 114.074219 85.042969 114.894531 85.605469 115.300781 C 85.964844 115.507812 86.734375 115.609375 87.296875 115.40625 C 87.859375 115.25 88.679688 115.097656 89.089844 115.097656 C 89.496094 115.097656 90.316406 114.636719 90.878906 114.125 C 93.644531 111.667969 97.125 111.820312 99.6875 114.535156 C 101.121094 116.121094 101.425781 116.222656 102.503906 115.660156 C 104.242188 114.738281 106.496094 114.996094 107.980469 116.378906 C 109.003906 117.351562 110.027344 117.707031 112.691406 117.914062 C 117.300781 118.222656 127.488281 122.574219 127.488281 124.210938 C 127.488281 125.695312 127.128906 125.902344 125.542969 125.441406 C 114.839844 122.113281 107.671875 120.628906 98.816406 119.808594 C 92.621094 119.246094 85.09375 119.398438 83.96875 120.0625 C 82.433594 120.984375 84.019531 121.34375 89.90625 121.34375 C 98.253906 121.34375 105.011719 122.265625 114.585938 124.773438 C 119.960938 126.15625 127.847656 128.921875 128.257812 129.535156 C 128.359375 129.742188 127.488281 130.304688 126.207031 130.765625 L 123.957031 131.636719 L 119.039062 129.792969 C 111.820312 127.128906 103.117188 124.980469 94.71875 123.851562 C 86.527344 122.777344 83.457031 122.625 83.457031 123.339844 C 83.457031 123.597656 85.453125 123.957031 87.960938 124.109375 C 97.230469 124.824219 107.777344 127.28125 117.402344 130.917969 C 119.296875 131.6875 120.832031 132.402344 120.832031 132.609375 C 120.832031 132.761719 119.65625 133.324219 118.273438 133.835938 C 116.839844 134.347656 115.558594 134.964844 115.40625 135.21875 C 115.25 135.476562 114.277344 135.21875 113.253906 134.707031 C 104.703125 130.40625 82.945312 124.824219 82.945312 126.925781 C 82.945312 127.179688 85.195312 127.898438 87.960938 128.511719 C 94.15625 129.84375 104.089844 133.070312 108.800781 135.167969 L 112.382812 136.804688 L 109.464844 138.292969 L 106.546875 139.777344 L 104.601562 138.804688 C 98.40625 135.628906 89.089844 132.097656 84.789062 131.277344 L 82.996094 130.96875 L 83.300781 132.914062 C 83.457031 134.042969 83.609375 134.910156 83.660156 134.964844 C 83.710938 134.964844 87.757812 135.78125 92.671875 136.804688 C 97.585938 137.777344 103.476562 139.160156 105.777344 139.878906 L 109.925781 141.160156 L 113.972656 138.90625 C 128.5625 130.96875 147.867188 125.082031 167.066406 122.828125 C 170.085938 122.46875 172.542969 122.007812 172.542969 121.753906 C 172.542969 121.191406 167.015625 121.242188 161.535156 121.90625 C 154.367188 122.726562 146.226562 124.363281 139.417969 126.308594 C 131.738281 128.511719 129.996094 128.308594 129.382812 125.03125 C 129.074219 123.441406 129.074219 123.390625 130.96875 123.390625 C 131.992188 123.390625 134.347656 122.929688 136.191406 122.367188 C 138.035156 121.804688 140.441406 121.34375 141.621094 121.34375 C 143.15625 121.34375 143.972656 121.035156 144.894531 120.0625 C 145.816406 119.089844 146.636719 118.785156 148.171875 118.785156 C 149.351562 118.785156 150.578125 118.988281 150.988281 119.246094 C 151.5 119.601562 152.011719 119.296875 152.78125 118.117188 C 155.136719 114.6875 159.386719 113.816406 161.84375 116.273438 C 162.355469 116.789062 163.378906 117.246094 164.042969 117.246094 C 164.761719 117.246094 165.425781 117.453125 165.632812 117.761719 C 165.835938 118.066406 166.398438 118.066406 167.21875 117.761719 C 167.9375 117.453125 168.703125 117.351562 168.960938 117.503906 C 169.164062 117.605469 169.726562 117.300781 170.238281 116.734375 C 170.957031 115.917969 171.007812 115.507812 170.496094 113.972656 L 169.882812 112.128906 L 165.683594 112.128906 C 158.925781 112.128906 150.117188 111.460938 151.550781 111.105469 C 152.269531 110.898438 155.75 110.4375 159.335938 110.078125 C 168.910156 109.054688 169.574219 108.238281 161.484375 107.46875 C 158.769531 107.210938 156.414062 106.90625 156.261719 106.753906 C 156.109375 106.597656 156.3125 106.496094 156.722656 106.496094 C 158.003906 106.496094 166.09375 105.421875 166.296875 105.214844 C 166.65625 104.859375 163.070312 100.042969 160.050781 96.820312 C 150.886719 87.195312 136.398438 81.972656 123.136719 83.507812 Z M 146.945312 101.121094 C 147.300781 101.324219 147.046875 101.9375 146.125 102.808594 C 145.40625 103.578125 144.078125 105.574219 143.257812 107.265625 C 141.414062 110.949219 140.132812 112.433594 137.625 113.714844 C 135.21875 114.945312 130.558594 115.046875 130.558594 113.921875 C 130.558594 112.792969 132.660156 109.621094 134.964844 107.316406 C 136.652344 105.625 136.703125 105.472656 135.425781 106.34375 C 133.273438 107.828125 131.277344 109.925781 129.894531 112.078125 C 128.871094 113.765625 128.769531 113.816406 128.613281 112.742188 C 128.308594 110.796875 129.996094 106.699219 131.839844 104.804688 C 134.808594 101.785156 138.90625 100.300781 143.460938 100.558594 C 145.050781 100.660156 146.636719 100.914062 146.945312 101.121094 Z M 121.957031 108.289062 C 125.132812 109.566406 127.898438 113.5625 127.386719 116.070312 C 127.230469 116.839844 127.027344 116.734375 126.257812 115.457031 C 125.746094 114.585938 124.824219 113.511719 124.160156 113.050781 C 123.136719 112.28125 123.238281 112.539062 124.722656 114.738281 C 125.695312 116.171875 126.308594 117.554688 126.15625 117.8125 C 125.746094 118.476562 123.085938 118.375 121.140625 117.554688 C 118.988281 116.683594 117.503906 115.046875 115.96875 112.078125 C 115.300781 110.796875 114.433594 109.464844 113.972656 109.105469 C 113.511719 108.75 113.304688 108.238281 113.460938 107.980469 C 113.921875 107.265625 120.011719 107.46875 121.957031 108.289062 Z M 121.957031 108.289062 "/>
<path style=" stroke:none;fill-rule:nonzero;fill:rgb(0%,0%,0%);fill-opacity:1;" d="M 170.136719 124.261719 C 170.597656 124.363281 171.316406 124.363281 171.671875 124.261719 C 171.980469 124.109375 171.621094 124.007812 170.753906 124.007812 C 169.933594 124.007812 169.625 124.109375 170.136719 124.261719 Z M 170.136719 124.261719 "/>
<path style=" stroke:none;fill-rule:nonzero;fill:rgb(0%,0%,0%);fill-opacity:1;" d="M 164.609375 124.929688 C 163.226562 125.285156 163.226562 125.335938 164.351562 125.335938 C 165.070312 125.335938 166.195312 125.132812 166.910156 124.929688 C 167.9375 124.621094 167.988281 124.519531 167.167969 124.519531 C 166.605469 124.519531 165.476562 124.722656 164.609375 124.929688 Z M 164.609375 124.929688 "/>
<path style=" stroke:none;fill-rule:nonzero;fill:rgb(0%,0%,0%);fill-opacity:1;" d="M 154.367188 127.179688 C 141.875 130.40625 130.96875 134.808594 120.167969 140.953125 C 117.300781 142.59375 116.378906 143.308594 116.992188 143.566406 C 117.554688 143.769531 120.113281 142.644531 123.800781 140.644531 C 135.988281 134.042969 147.917969 129.332031 159.128906 126.667969 C 161.125 126.207031 162.816406 125.746094 162.816406 125.644531 C 162.816406 125.183594 160.613281 125.59375 154.367188 127.179688 Z M 154.367188 127.179688 "/>
<path style=" stroke:none;fill-rule:nonzero;fill:rgb(0%,0%,0%);fill-opacity:1;" d="M 166.503906 127.230469 C 157.542969 129.585938 148.941406 132.863281 139.726562 137.523438 C 135.066406 139.828125 127.027344 144.539062 125.390625 145.867188 L 124.160156 146.839844 L 125.542969 147.199219 C 126.71875 147.507812 127.796875 147.046875 131.429688 144.742188 C 143.71875 137.0625 153.753906 132.453125 167.066406 128.308594 C 170.34375 127.28125 173.054688 126.308594 173.054688 126.207031 C 173.054688 125.746094 171.210938 126.003906 166.503906 127.230469 Z M 166.503906 127.230469 "/>
<path style=" stroke:none;fill-rule:nonzero;fill:rgb(0%,0%,0%);fill-opacity:1;" d="M 166.398438 131.6875 C 158.769531 134.65625 149.144531 139.621094 142.695312 143.871094 C 139.621094 145.867188 136.753906 147.8125 136.34375 148.222656 C 135.9375 148.632812 135.167969 149.246094 134.605469 149.503906 C 133.375 150.167969 133.375 150.886719 134.605469 151.5 C 135.371094 151.910156 135.886719 151.757812 137.011719 150.734375 C 142.898438 145.511719 164.25 133.222656 166.195312 133.992188 C 166.808594 134.195312 166.964844 134.144531 166.707031 133.683594 C 166.398438 133.273438 166.757812 133.171875 168.039062 133.375 C 169.164062 133.582031 169.472656 133.476562 169.011719 133.171875 C 168.449219 132.8125 168.804688 132.402344 170.648438 131.53125 C 172.953125 130.40625 173.773438 129.535156 172.441406 129.535156 C 172.082031 129.535156 169.371094 130.507812 166.398438 131.6875 Z M 166.398438 131.6875 "/>
<path style=" stroke:none;fill-rule:nonzero;fill:rgb(0%,0%,0%);fill-opacity:1;" d="M 169.265625 135.476562 C 169.164062 135.78125 166.554688 137.472656 163.480469 139.265625 C 155.957031 143.667969 152.0625 146.585938 145.921875 152.421875 C 141.976562 156.160156 142.078125 156.722656 146.636719 157.132812 C 146.894531 157.183594 146.945312 157.335938 146.789062 157.542969 C 146.585938 157.695312 147.25 158.414062 148.222656 159.078125 C 150.066406 160.359375 150.785156 160.5625 150.273438 159.742188 C 150.066406 159.4375 150.324219 159.386719 150.835938 159.589844 C 151.5 159.847656 151.601562 159.742188 151.296875 159.179688 C 151.089844 158.769531 151.089844 158.617188 151.296875 158.875 C 151.550781 159.078125 152.21875 158.824219 152.78125 158.363281 C 153.804688 157.492188 153.804688 157.492188 153.089844 158.464844 C 152.679688 159.027344 152.011719 159.796875 151.550781 160.152344 C 150.886719 160.769531 150.9375 160.972656 152.320312 162.046875 C 153.140625 162.714844 154.164062 163.226562 154.625 163.175781 C 156.058594 162.917969 157.234375 161.996094 157.390625 160.972656 C 157.492188 160.359375 157.902344 160.050781 158.515625 160.152344 C 159.078125 160.257812 159.335938 160.203125 159.128906 159.949219 C 158.875 159.742188 159.230469 159.335938 159.898438 158.976562 C 160.511719 158.667969 160.972656 158.003906 160.972656 157.542969 C 160.921875 157.082031 161.023438 156.773438 161.230469 156.929688 C 161.691406 157.183594 163.378906 155.289062 163.53125 154.417969 C 163.585938 154.113281 163.789062 153.804688 164.042969 153.753906 C 164.710938 153.652344 168.398438 147.660156 169.164062 145.511719 C 169.625 144.128906 169.675781 143.207031 169.320312 142.078125 C 168.960938 141.003906 168.960938 140.542969 169.421875 140.390625 C 169.726562 140.289062 169.832031 139.929688 169.625 139.621094 C 169.421875 139.210938 169.574219 139.265625 170.085938 139.671875 C 170.753906 140.1875 170.90625 140.132812 171.160156 139.160156 C 171.316406 138.496094 171.671875 137.265625 171.929688 136.34375 C 172.441406 134.757812 172.441406 134.707031 170.957031 134.808594 C 170.136719 134.859375 169.371094 135.167969 169.265625 135.476562 Z M 168.960938 139.777344 C 168.960938 140.03125 168.601562 140.132812 168.191406 139.980469 C 167.78125 139.777344 167.578125 139.46875 167.730469 139.210938 C 168.039062 138.648438 168.960938 139.109375 168.960938 139.777344 Z M 168.652344 142.847656 C 168.398438 143.105469 168.140625 142.695312 168.089844 141.925781 C 168.039062 140.800781 168.089844 140.699219 168.550781 141.515625 C 168.859375 142.027344 168.859375 142.644531 168.652344 142.847656 Z M 168.652344 142.847656 "/>
<path style=" stroke:none;fill-rule:nonzero;fill:rgb(0%,0%,0%);fill-opacity:1;" d="M 84.070312 137.472656 C 84.222656 137.625 87.195312 138.546875 90.675781 139.570312 C 98.867188 141.925781 99.839844 142.234375 107.671875 145.355469 C 121.140625 150.734375 135.066406 158.617188 146.433594 167.371094 C 147.355469 168.089844 147.96875 168.242188 148.480469 167.886719 C 149.09375 167.476562 148.992188 167.167969 147.710938 166.09375 C 145.765625 164.453125 134.296875 156.671875 133.886719 156.671875 C 133.683594 156.671875 132.914062 156.261719 132.199219 155.699219 C 129.894531 154.0625 119.347656 148.839844 113.40625 146.328125 C 106.34375 143.359375 98.203125 140.644531 90.726562 138.699219 C 84.992188 137.214844 83.558594 136.960938 84.070312 137.472656 Z M 84.070312 137.472656 "/>
<path style=" stroke:none;fill-rule:nonzero;fill:rgb(0%,0%,0%);fill-opacity:1;" d="M 84.992188 141.210938 C 84.992188 141.925781 86.015625 142.59375 88.832031 143.566406 C 90.265625 144.078125 92.363281 144.894531 93.542969 145.460938 C 94.769531 145.972656 95.847656 146.433594 96 146.433594 C 96.152344 146.433594 98.765625 147.609375 101.785156 149.09375 C 113.972656 155.035156 125.03125 162.152344 133.886719 169.832031 C 136.5 172.082031 137.421875 172.390625 138.753906 171.519531 C 139.671875 170.90625 138.648438 169.984375 131.070312 164.25 C 120.679688 156.363281 108.644531 149.761719 95.230469 144.488281 C 85.863281 140.851562 84.992188 140.59375 84.992188 141.210938 Z M 84.992188 141.210938 "/>
<path style=" stroke:none;fill-rule:nonzero;fill:rgb(0%,0%,0%);fill-opacity:1;" d="M 88.574219 149.300781 C 88.574219 149.707031 90.625 152.574219 91.851562 153.90625 C 92.414062 154.523438 93.183594 154.929688 93.542969 154.777344 C 94.003906 154.574219 94.105469 154.777344 93.902344 155.339844 C 93.542969 156.3125 94.515625 156.46875 94.925781 155.496094 C 95.078125 155.1875 95.078125 155.441406 94.925781 156.109375 C 94.667969 157.03125 94.769531 157.234375 95.28125 156.929688 C 95.847656 156.621094 95.847656 156.671875 95.4375 157.132812 C 94.71875 157.902344 97.074219 160.613281 99.6875 162.097656 C 100.609375 162.609375 101.171875 163.226562 101.019531 163.480469 C 100.863281 163.789062 100.964844 163.839844 101.273438 163.636719 C 101.632812 163.429688 101.886719 163.53125 101.886719 163.839844 C 101.886719 164.148438 102.503906 164.660156 103.21875 164.964844 C 104.292969 165.476562 104.601562 165.425781 105.011719 164.8125 C 105.421875 164.300781 105.472656 164.351562 105.214844 165.222656 C 104.960938 166.144531 105.320312 166.503906 107.621094 167.628906 C 109.105469 168.34375 110.847656 168.859375 111.511719 168.703125 C 112.128906 168.601562 112.539062 168.703125 112.433594 168.910156 C 112.027344 169.523438 116.171875 171.417969 118.679688 171.828125 C 119.859375 172.03125 120.832031 172.03125 120.832031 171.878906 C 120.832031 171.417969 109.210938 161.792969 105.472656 159.128906 C 98.253906 154.007812 88.574219 148.378906 88.574219 149.300781 Z M 101.886719 161.535156 C 101.324219 162.046875 100.914062 162.097656 100.351562 161.742188 C 99.738281 161.332031 99.738281 161.28125 100.558594 161.382812 C 101.070312 161.484375 101.632812 161.230469 101.785156 160.820312 C 101.9375 160.359375 101.785156 160.257812 101.375 160.511719 C 100.914062 160.820312 100.8125 160.71875 101.121094 160.308594 C 101.375 159.847656 101.632812 159.796875 102.042969 160.203125 C 102.453125 160.613281 102.398438 160.972656 101.886719 161.535156 Z M 101.886719 161.535156 "/>
</g>
</svg>
